<svg width="150" height="44" viewBox="0 0 150 44" fill="none" xmlns="http://www.w3.org/2000/svg">
<path d="M0 43.6503C0.681235 41.3581 1.34243 38.755 1.9836 35.8411C2.66483 32.9272 3.30599 29.955 3.90708 26.9245C4.54824 23.8552 5.14933 20.9607 5.71035 18.2411C6.23129 15.7545 6.7322 13.2291 7.21307 10.6649C7.69395 8.10066 8.17482 5.517 8.65569 2.91391L18.0327 1.45696C17.5117 4.06004 16.9908 6.64371 16.4699 9.20795C15.9489 11.7333 15.428 14.2587 14.907 16.7841C14.346 19.5038 13.765 22.3788 13.1639 25.4093C12.5628 28.4397 11.9817 31.4313 11.4207 34.3841C10.8597 37.298 10.3387 40.0177 9.85787 42.543C9.13656 42.543 8.23493 42.6013 7.15297 42.7179C6.071 42.7956 4.98904 42.9121 3.90708 43.0675C2.82512 43.1841 1.90345 43.3007 1.14207 43.4172C0.420763 43.5338 0.0400726 43.6115 0 43.6503Z" fill="#0066FF"/>
<path d="M12.6346 43.7669C13.1956 41.902 13.7366 39.7845 14.2576 37.4146C14.7785 35.0057 15.2594 32.5581 15.7002 30.0715C16.181 27.585 16.6218 25.2733 17.0226 23.1364C17.4233 20.9996 17.7439 19.2318 17.9843 17.8331C18.4251 15.23 18.8459 12.6075 19.2466 9.96556C19.6874 7.28477 20.1082 4.56512 20.5089 1.80662L40.6454 0.815894L38.9022 7.98411L29.4651 7.98411L27.6017 18.3576C28.2429 18.3188 28.844 18.2993 29.405 18.2993C30.0061 18.2993 30.5872 18.2993 31.1482 18.2993L33.9733 18.2993C34.4542 18.2993 34.8749 18.2993 35.2356 18.2993C35.5962 18.2993 35.9168 18.2799 36.1973 18.2411C36.1573 18.785 36.0971 19.3289 36.017 19.8728C35.9369 20.3779 35.8567 20.9024 35.7766 21.4464L35.2356 24.5934C34.3941 24.5934 33.1718 24.574 31.5689 24.5351C30.0061 24.4574 28.3431 24.3991 26.5799 24.3603L23.8149 41.5523C23.1337 41.6689 22.4524 41.7854 21.7712 41.902C21.13 42.0185 20.4688 42.1545 19.7876 42.3099C18.6656 42.5042 17.4433 42.7373 16.1209 43.0093C14.7985 43.2812 13.6364 43.5338 12.6346 43.7669Z" fill="#0066FF"/>
<path d="M33.121 43.7669L36.2466 28.6146C36.7275 25.8172 37.2485 22.9422 37.8095 19.9894C38.3705 17.0366 38.8914 14.1227 39.3723 11.2477C39.8932 8.37263 40.294 5.67241 40.5745 3.14702C42.8586 2.44768 45.3231 1.94261 47.9679 1.63179C50.6127 1.28212 53.2374 1.10729 55.8422 1.10729C58.8877 1.10729 60.9514 1.74835 62.0334 3.03047C63.1554 4.31258 63.7164 6.0415 63.7164 8.21722C63.7164 10.1987 63.2356 12.1996 62.2738 14.2199C61.3121 16.2013 60.0498 18.0079 58.4869 19.6397C56.9642 21.2327 55.2811 22.4954 53.4378 23.4278C54.1591 24.9819 54.9205 26.6914 55.7219 28.5563C56.5635 30.3823 57.3449 32.1307 58.0662 33.8013C58.4669 34.7726 58.8676 35.7439 59.2684 36.7152C59.7092 37.6865 60.1299 38.6578 60.5307 39.6291L51.2138 42.7762L49.0498 35.7828C48.4488 33.8402 47.8877 31.9753 47.3668 30.1881C46.8859 28.362 46.6054 27.0799 46.5253 26.3417L45.7439 26.5748C45.6236 27.1965 45.4834 27.8764 45.3231 28.6146C45.2029 29.3139 45.0626 30.091 44.9023 30.9457C44.742 31.8004 44.5817 32.6358 44.4215 33.4517C44.2612 34.2287 44.1009 35.0057 43.9406 35.7828L42.8586 41.3192L33.121 43.7669ZM47.2466 18.4742C47.9679 18.3965 48.8495 18.1051 49.8914 17.6C50.9733 17.0561 52.0353 16.3956 53.0771 15.6185C54.1591 14.8415 55.0607 14.045 55.782 13.2291C56.5034 12.4132 56.864 11.6945 56.864 11.0729C56.864 10.2958 56.3831 9.79073 55.4214 9.55762C54.4997 9.28565 53.2775 9.14967 51.7547 9.14967H50.4324C50.1919 9.18852 49.9715 9.20795 49.7711 9.20795C49.5708 9.20795 49.3704 9.20795 49.1701 9.20795L47.2466 18.4742Z" fill="#0066FF"/>
<path d="M59.8896 43.6503C60.4507 41.3969 61.0117 38.8521 61.5727 36.0159C62.1337 33.1408 62.6947 30.1687 63.2557 27.0993C63.8168 24.03 64.3377 21.0773 64.8186 18.2411C65.2594 15.7545 65.6801 13.2291 66.0809 10.6649C66.5217 8.10066 66.9424 5.517 67.3432 2.91391L76.7202 1.45696L74.0153 16.7841C73.4142 20.3974 72.8732 23.6415 72.3923 26.5166C71.9515 29.3916 71.5107 32.1113 71.0699 34.6755C70.6692 37.2397 70.2484 39.8623 69.8076 42.543C69.0462 42.543 68.1246 42.6013 67.0426 42.7179C65.9607 42.7956 64.8787 42.9121 63.7967 43.0675C62.7148 43.1841 61.7931 43.3007 61.0317 43.4172C60.3104 43.5338 59.9297 43.6115 59.8896 43.6503Z" fill="#0066FF"/>
<path d="M72.2209 43.7669L80.0952 2.33113L99.0896 0.757617C98.8091 1.61236 98.5687 2.48654 98.3683 3.38013C98.1679 4.11832 97.9676 4.89537 97.7672 5.71126C97.6069 6.4883 97.4667 7.18764 97.3465 7.80927C96.8255 7.84813 96.0842 7.88698 95.1224 7.92583C94.1607 7.92583 93.1789 7.94526 92.1771 7.98411C91.1753 7.98411 90.3137 7.98411 89.5924 7.98411C88.8711 7.98411 88.4904 7.98411 88.4503 7.98411L86.3465 18.4159L89.8328 18.2411C90.2736 18.2022 90.7144 18.1828 91.1552 18.1828C91.6361 18.1828 92.0969 18.1828 92.5377 18.1828C92.9785 18.1828 93.3793 18.1828 93.7399 18.1828C94.1006 18.1828 94.3811 18.1634 94.5814 18.1245C94.5013 18.6684 94.4211 19.2124 94.341 19.7563C94.3009 20.2614 94.2408 20.7859 94.1607 21.3298L93.6197 24.5351C93.4193 24.574 93.1589 24.5934 92.8383 24.5934C92.5177 24.5934 92.137 24.5934 91.6962 24.5934C91.2554 24.6322 90.7946 24.6517 90.3137 24.6517C89.8328 24.6517 89.372 24.6711 88.9312 24.7099C88.4102 24.7488 87.8693 24.7682 87.3083 24.7682C86.7472 24.7682 86.1461 24.7876 85.505 24.8265L83.4613 35.5497L92.2372 34.2093L91.6361 40.853L72.2209 43.7669Z" fill="#0066FF"/>
<path d="M92.5269 44C93.7291 38.4053 94.8712 32.9854 95.9531 27.7404C96.8347 22.8062 97.6963 18.0662 98.5378 13.5205C99.3794 8.97484 99.9804 4.79823 100.341 0.99073C100.622 1.02958 100.862 1.04901 101.062 1.04901C101.303 1.04901 101.503 1.04901 101.663 1.04901L102.926 1.04901C103.968 1.04901 105.13 1.02958 106.412 0.99073C107.694 0.913026 108.877 0.854748 109.959 0.815894C110.239 2.17572 110.5 3.51612 110.74 4.83709C111.02 6.15806 111.261 7.44018 111.461 8.68345C111.662 9.7713 111.882 10.898 112.122 12.0636C112.363 13.1903 112.603 14.3364 112.844 15.502C113.044 16.6676 113.244 17.7554 113.445 18.7656C113.685 19.7369 113.886 20.6305 114.046 21.4464C114.527 19.1541 114.968 16.9007 115.368 14.6861C115.809 12.4715 116.23 10.4706 116.631 8.68345L118.374 0.874175L125.707 0C125.026 2.95276 124.385 5.84724 123.784 8.68345C123.182 11.5196 122.621 14.2587 122.101 16.9007C121.099 21.6406 120.217 26.1086 119.456 30.3046C118.694 34.5007 118.113 38.1528 117.713 41.2609C118.153 41.2609 118.073 41.3192 117.472 41.4358C116.911 41.5135 116.07 41.6494 114.948 41.8437C113.826 41.9991 112.623 42.2128 111.341 42.4848C110.059 42.7567 108.917 43.087 107.915 43.4755C107.795 41.9214 107.674 40.4062 107.554 38.9298C107.434 37.4534 107.294 36.0159 107.133 34.6172C106.893 32.1307 106.612 29.6636 106.292 27.2159C105.971 24.7682 105.651 22.8256 105.33 21.3881C105.05 23.0976 104.709 25.0596 104.308 27.2742C103.908 29.4499 103.467 31.645 102.986 33.8596L101.303 42.0185L92.5269 44Z" fill="#0066FF"/>
<path d="M123.011 44C122.45 44 121.889 43.9611 121.328 43.8834C120.767 43.8446 120.206 43.7863 119.645 43.7086L122.831 28.0318C123.231 25.8949 123.652 23.6415 124.093 21.2715C124.574 18.8627 125.035 16.4927 125.476 14.1616C125.916 11.7916 126.297 9.59647 126.618 7.57616C126.978 5.55585 127.259 3.84636 127.459 2.44769C129.182 2.13687 130.925 1.84548 132.689 1.57351C134.452 1.30155 136.255 1.16557 138.098 1.16557C141.064 1.16557 143.408 1.76777 145.131 2.97219C146.854 4.13775 148.097 5.69183 148.858 7.63444C149.619 9.53819 150 11.6362 150 13.9285C150 15.9876 149.699 18.1634 149.098 20.4556C148.497 22.7091 147.636 24.9625 146.514 27.2159C145.432 29.4305 144.129 31.5285 142.607 33.5099C140.242 36.5793 137.357 39.1046 133.951 41.0861C130.585 43.0287 126.938 44 123.011 44ZM130.164 36.657C131.567 35.7634 132.889 34.4035 134.131 32.5775C135.414 30.7514 136.616 28.5563 137.738 25.9921C138.74 23.6221 139.521 21.3881 140.082 19.2901C140.643 17.1532 140.924 15.3854 140.924 13.9868C140.924 12.5492 140.503 11.4225 139.661 10.6066C138.86 9.79073 137.577 9.38278 135.814 9.38278C135.173 12.7241 134.512 15.8128 133.831 18.649C133.19 21.4852 132.548 24.3408 131.907 27.2159C131.306 30.091 130.725 33.238 130.164 36.657Z" fill="#0066FF"/>
</svg>
