<svg width="109" height="81" viewBox="0 0 109 81" fill="none" xmlns="http://www.w3.org/2000/svg">
<path d="M77.2698 21.0588V59.9403C77.2698 71.5698 67.8353 81 56.1984 81C50.3794 81 45.113 78.641 41.2997 74.8298C37.4844 71.0205 35.1289 65.7541 35.1289 59.9403V21.0588C35.1289 9.4292 44.5624 0 56.1993 0C62.0183 0 67.2847 2.35802 71.099 6.1683C74.9133 9.97858 77.2698 15.244 77.2698 21.0578V21.0588Z" fill="#1B84FA"/>
<path d="M46.6109 14.5331C49.7025 14.0066 53.0713 15.7465 53.5225 19.0189C53.9145 21.8632 53.8839 31.1711 53.4757 34.0183C52.5819 40.2429 42.9983 40.7006 42.2947 32.9873C42.0462 30.2663 41.941 20.517 42.6436 18.2497C43.1197 16.7144 44.9791 14.8102 46.6109 14.5331ZM51.9003 25.1719C52.1058 24.9645 51.9547 19.916 51.8362 19.3322C51.015 15.2965 44.4476 14.8436 43.9275 20.9068C43.6713 23.8887 43.6713 29.4637 43.9418 32.4389C44.504 38.6282 51.3793 38.1381 51.9003 33.2673C51.9653 32.6558 52.08 28.3678 51.9003 28.1872C51.6622 27.9474 48.3489 28.943 48.3489 26.6796C48.3489 24.4152 51.6622 25.4107 51.9003 25.1719Z" fill="#FDFCFC"/>
<path d="M70.2926 30.1097C69.307 30.0619 69.2228 28.732 68.7143 27.9848C66.5892 24.8624 62.1449 24.7984 60.0159 27.9332C59.7511 28.323 58.9806 30.6553 58.4893 30.1097C59.0189 22.8828 69.7104 22.9458 70.2916 30.1097H70.2926Z" fill="#121012"/>
<path d="M56.8429 37.797C57.688 37.7865 57.71 38.7448 58.3916 39.1432C59.9001 40.0251 61.0932 38.1237 60.9622 36.6973C61.4373 36.7957 61.51 37.2495 61.531 37.6594C61.6849 40.6394 56.5925 41.3111 56.8429 37.797Z" fill="#121012"/>
<path d="M63.0625 18.9013C63.5835 18.738 66.0661 18.6224 65.8998 19.5396C65.7717 20.2485 63.593 19.3361 63.0309 19.9437L62.6074 19.273C62.7422 19.1173 62.8521 18.9663 63.0615 18.9013H63.0625Z" fill="#121012"/>
<path d="M49.979 11.9974V12.8181C48.8577 12.6624 47.3166 13.2357 46.4113 12.4035C46.2804 11.7385 46.9448 12.0137 47.3673 11.9965C48.2353 11.9602 49.1139 12.0194 49.979 11.9974Z" fill="#121012"/>
<path d="M51.9004 25.1719C51.6624 25.4117 48.349 24.4161 48.349 26.6795C48.349 28.9439 51.6624 27.9484 51.9004 28.1872C52.0792 28.3668 51.9655 32.6558 51.9004 33.2673C51.3794 38.1381 44.5051 38.6282 43.942 32.4389C43.6715 29.4627 43.6715 23.8887 43.9277 20.9068C44.4477 14.8436 51.0152 15.2974 51.8364 19.3322C51.9549 19.9151 52.1069 24.9645 51.9004 25.1719Z" fill="#121012"/>
<path d="M28.2791 13.7019C27.3576 12.4952 26.4571 13.4258 26.5823 14.6258C26.7104 14.8666 27.9684 17.1176 27.8174 17.2084C26.3643 16.9208 25.5699 17.8896 24.9963 19.0763C24.9332 19.2091 24.961 19.2922 24.766 19.1604C24.549 19.0142 24.8654 18.5288 24.9581 18.3616C25.3434 17.6861 25.8519 17.2256 26.588 16.9695C26.7333 16.9189 27.2457 16.8587 27.2706 16.8339C27.4656 16.6447 26.5383 15.3147 26.5861 14.9555C26.2133 15.2154 26.2592 15.8459 25.937 16.2272C25.6426 16.573 25.1369 16.6256 24.7516 16.3781C24.526 16.2253 24.5098 15.9826 24.4084 15.8173C24.2258 15.5249 24.1427 16.1909 23.766 16.2721C22.7441 16.4956 22.1571 15.5622 22.3455 14.6622C22.2632 14.7157 22.0845 14.688 22.0711 14.6994C22.0156 14.7501 21.8139 16.0361 21.7719 16.2635C21.7604 16.3265 21.9373 17.2256 21.9793 17.3699C22.074 17.7014 22.4267 18.2594 22.4057 18.4849C22.3703 18.7992 22.1246 19.1508 22.0328 19.468C20.9995 22.9783 19.5579 26.9491 19.7051 30.6017C19.7146 30.8931 19.533 31.3345 19.5091 31.6756C18.6812 44.3648 26.4876 56.0431 39.8205 57.0281C41.2783 57.1342 42.7725 57.0253 44.2256 56.7176C44.261 56.71 44.2963 56.7023 44.3326 56.6947L41.4294 51.5888C41.3883 51.5869 41.3491 51.5879 41.3089 51.5869C37.4707 51.5258 33.5694 50.2522 30.7149 47.683C24.0691 41.7144 23.874 31.6661 26.3165 23.6232C27.0861 21.1018 27.63 20.9795 29.1376 19.0963C29.6901 18.4103 30.1719 18.0253 29.9425 17.0613C29.8115 16.509 28.6347 14.1682 28.282 13.7019H28.2791Z" fill="#1B84FA"/>
<path d="M28.1575 13.1543C27.9309 13.1906 28.0437 12.9766 27.9672 12.9422C27.4883 12.7273 27.2369 13.012 26.7895 12.9785C26.9883 12.454 26.7015 11.9677 26.734 11.4346C27.3162 10.6377 28.386 7.20866 29.0389 6.80164C29.6488 6.42138 30.5015 7.06821 30.3495 7.74944L28.1575 13.1543Z" fill="#1B84FA"/>
<path d="M29.3541 15.1981C29.3149 15.1666 29.3082 15.0366 29.2968 14.9955C29.2709 14.9038 29.2375 14.814 29.1897 14.7309C29.0989 14.5723 28.987 14.429 28.8847 14.278C28.7911 14.1404 28.6955 14.0028 28.6094 13.8605C28.5502 13.7621 28.4785 13.6512 28.4593 13.5356C28.4565 13.5194 28.445 13.4563 28.4632 13.4449C29.9459 12.4531 31.1552 11.1289 32.5337 10.0063C33.2726 9.75689 33.8701 10.3397 33.6388 11.0916C33.5097 11.5101 33.1168 11.8627 32.8128 12.1569C32.3482 12.606 31.8511 13.0207 31.3607 13.4401C31.0988 13.6646 30.8311 13.8968 30.5739 14.1328C30.4066 14.2857 30.2365 14.4366 30.0787 14.5981C29.9994 14.6793 29.9239 14.7624 29.8531 14.8513C29.7853 14.9354 29.7298 15.0376 29.6419 15.1026C29.5663 15.158 29.4736 15.1819 29.3828 15.2057C29.3723 15.2086 29.3637 15.2057 29.356 15.2L29.3541 15.1981Z" fill="#1B84FA"/>
<path d="M24.6282 15.7628C24.2496 15.2487 24.4867 14.5465 24.6119 13.9818C24.7171 13.5051 24.7964 13.0235 24.8911 12.5448C24.9704 12.1436 25.1234 11.7757 25.5736 11.6773C26.1682 11.5474 26.6338 12.0853 26.6233 12.6499C26.6195 12.8707 26.5612 13.0856 26.5038 13.2987C26.2725 14.1538 26.0774 15.0338 25.7887 15.8698C25.6721 16.208 25.3834 16.3083 25.0689 16.1392C24.8978 16.0475 24.7429 15.9175 24.6282 15.7618V15.7628Z" fill="#1B84FA"/>
<path d="M22.8832 13.3904C22.8832 13.3904 22.8899 13.3856 22.8937 13.3846C22.9176 13.3751 22.9453 13.3808 22.9702 13.376C23.0218 13.3646 23.0486 13.3082 23.0639 13.2576C23.1499 12.9604 23.0706 12.541 23.3794 12.3556C23.4979 12.2849 23.6394 12.2563 23.7761 12.2496C24.0342 12.2372 24.3669 12.2983 24.5428 12.5075C24.5772 12.5486 24.6049 12.5964 24.6183 12.6489C24.7579 13.1888 24.0533 15.1694 23.8975 15.8191C23.56 16.2901 22.714 15.8296 22.583 15.3471C22.5563 15.2487 22.5687 15.135 22.5735 15.0337C22.583 14.8665 22.6022 14.7003 22.6241 14.535C22.6719 14.1757 22.7398 13.8194 22.8392 13.4706C22.8478 13.441 22.8593 13.4085 22.8832 13.3913V13.3904Z" fill="#1B84FA"/>
<path d="M28.0732 12.9873C27.8123 12.8439 27.5092 12.7771 27.2119 12.7962L28.0732 12.9873Z" fill="#1B84FA"/>
<path d="M26.873 11.5244C26.9285 11.8913 26.9782 12.2591 27.0222 12.6279L26.873 11.5244Z" fill="#1B84FA"/>
<path d="M13.2382 47.6562C12.2086 48.4999 11.6408 49.9044 11.9859 51.2114C12.1102 51.6815 12.3157 52.1248 12.5203 52.5653C13.0193 53.6401 13.5193 54.7179 14.1464 55.723C14.7744 56.7281 15.5373 57.6635 16.4885 58.3686C16.9655 58.7221 17.7446 59.1664 18.3134 58.7699C19.0075 58.2855 19.0352 57.4074 18.9883 56.6402C18.9329 55.7507 18.7063 54.8822 18.4855 54.0223C18.2102 52.9475 17.9425 51.8659 17.5228 50.8388C16.9493 49.4353 15.5258 46.8928 13.6263 47.4671C13.4915 47.5082 13.3472 47.5664 13.2372 47.6562H13.2382Z" fill="#0276FC"/>
<path d="M99.085 56.6659H94.5843C91.789 56.6659 89.5225 58.9303 89.5225 61.7249V71.007C89.5225 73.8007 91.789 76.066 94.5843 76.066H99.214C104.505 76.066 108.819 71.8067 108.904 66.5375C108.992 61.0962 104.531 56.6668 99.0859 56.6668L99.085 56.6659ZM99.6815 68.7206H97.8155C95.2688 68.7206 93.9973 67.448 93.9973 64.9056C93.9973 62.3632 95.2688 61.0896 97.8155 61.0896H99.8507C102.65 61.0896 104.432 62.5313 104.432 64.9056C104.432 67.2798 102.567 68.7206 99.6824 68.7206H99.6815Z" fill="#0475F7"/>
<path d="M103.456 64.9056C103.456 66.0952 102.488 66.8872 100.99 66.8872H100.019C98.6967 66.8872 98.0361 66.2261 98.0361 64.9056C98.0361 63.5852 98.6967 62.9241 100.019 62.9241H101.077C102.531 62.9241 103.456 63.6731 103.456 64.9056Z" fill="#FE69AD"/>
<path d="M30.4562 71.7418C30.178 71.2201 30.264 70.5733 30.6847 70.1548C32.1081 68.7389 32.9713 66.7955 32.9713 64.6276C32.9713 60.2555 29.4266 56.7405 25.0798 56.7405H18.281C16.8977 56.7405 15.7773 57.8603 15.7773 59.2437V73.6374C15.7773 75.0189 16.8977 76.1397 18.281 76.1397H28.6313C30.5212 76.1397 31.7305 74.1256 30.8405 72.4584L30.4571 71.7418H30.4562ZM25.1716 68.7952H23.3056C20.7598 68.7952 19.4884 67.5226 19.4884 64.9802C19.4884 62.4377 20.7598 61.1651 23.3056 61.1651H25.3418C28.1418 61.1651 29.9218 62.6059 29.9218 64.9802C29.9218 67.3544 28.0577 68.7952 25.1716 68.7952Z" fill="#0276FC"/>
<path d="M28.9476 64.9802C28.9476 66.1698 27.9783 66.9618 26.4793 66.9618H25.51C24.1869 66.9618 23.5264 66.3006 23.5264 64.9802C23.5264 63.6598 24.1869 62.9987 25.51 62.9987H26.5663C28.0213 62.9987 28.9467 63.7468 28.9467 64.9802H28.9476Z" fill="#FE69AD"/>
<path d="M7.61235 63.742C7.61044 64.0725 7.74236 64.3697 7.95937 64.5866C8.17541 64.8015 8.47272 64.9334 8.7987 64.9334H11.3769C11.4716 64.9334 11.5653 64.9353 11.658 64.9391C11.658 64.9391 11.6589 64.9391 11.6609 64.9391C12.0499 64.9859 12.3884 65.2458 12.5289 65.6175C12.5824 65.7608 12.6216 65.9108 12.6445 66.0665C12.657 66.1458 12.6637 66.2261 12.6675 66.3073C12.6685 66.3245 12.6684 66.3426 12.6684 66.3598V68.1064C12.6684 69.3446 11.6647 70.3469 10.4267 70.3469H8.33602C7.91826 70.3469 7.57985 70.6851 7.57985 71.1026V73.5457C7.57985 74.9731 6.42217 76.1301 4.99396 76.1301H2.58684C1.15863 76.1301 0 74.9731 0 73.5457V59.3441C0 57.9167 1.15768 56.7587 2.58684 56.7587H10.0826C11.5108 56.7587 12.6694 57.9157 12.6694 59.3441V61.1049C12.6694 61.2139 12.6618 61.3218 12.6455 61.4269C12.6226 61.5827 12.5834 61.7327 12.5289 61.876C12.374 62.2878 11.9754 62.562 11.5356 62.562H8.82929C8.17159 62.562 7.61713 63.0827 7.61235 63.74V63.742Z" fill="#31CCC2"/>
<path d="M23.1895 46.2383C21.9123 46.6157 20.8435 47.6897 20.6523 49.0282C20.5835 49.5088 20.6007 49.998 20.6179 50.4833C20.66 51.6671 20.7011 52.8547 20.8885 54.0242C21.0758 55.1936 21.4152 56.3516 22.0175 57.372C22.3195 57.8832 22.8644 58.595 23.5432 58.4507C24.371 58.274 24.7381 57.4752 24.9934 56.751C25.2888 55.9102 25.4169 55.0217 25.5478 54.1436C25.7123 53.0458 25.8863 51.9461 25.8996 50.8359C25.9168 49.3206 25.5937 46.4247 23.6206 46.2154C23.481 46.2001 23.3252 46.1982 23.1885 46.2383H23.1895Z" fill="#0276FC"/>
<path d="M83.7371 56.6793H81.2526C79.2919 56.6793 77.7021 58.2692 77.7021 60.2278V60.9367C77.7021 62.1081 76.3523 62.7655 75.4288 62.0451L71.3478 58.8577C69.9693 57.7809 67.9561 58.7641 67.9561 60.5116V71.7427C67.9561 74.1218 69.8862 76.0508 72.2656 76.0508H73.1297L74.8916 76.0498C74.9097 76.0498 74.927 76.0498 74.9442 76.0498C75.0254 76.046 75.1057 76.0384 75.1851 76.0269C75.3399 76.0049 75.491 75.9648 75.6344 75.9113C76.0062 75.7709 76.2663 75.4326 76.3121 75.0438C76.3121 75.0438 76.3125 75.0431 76.3131 75.0419C76.3169 74.9482 76.3188 74.8546 76.3188 74.76V70.8781C76.3188 70.5513 76.4508 70.2551 76.6668 70.0392C76.8838 69.8223 77.1811 69.6905 77.5119 69.6924C78.1696 69.6962 78.6906 70.2513 78.6906 70.9077V74.9177C78.6915 75.3572 78.9659 75.7565 79.3779 75.9104C79.5213 75.9648 79.6724 76.0049 79.8272 76.0269C79.9324 76.0441 80.0395 76.0508 80.1484 76.0508H81.9103C81.9762 76.0508 82.0422 76.0489 82.1072 76.0441V76.0527H83.0259C85.4072 76.0527 87.3373 74.1237 87.3373 71.7446V60.2804C87.3373 58.2931 85.7246 56.6812 83.7362 56.6812L83.7371 56.6793Z" fill="#FABD43"/>
<path opacity="0.61" d="M27.1572 58.5845C27.1763 58.5558 27.2012 58.5301 27.2337 58.509C27.2815 58.4794 27.335 58.4613 27.3885 58.4441C27.6495 58.3638 27.9134 58.3304 28.1849 58.3762C28.2957 58.3944 28.4047 58.424 28.5108 58.4603C28.9774 58.6208 29.4286 58.8836 29.7813 59.2304C29.8129 59.261 29.8435 59.2934 29.874 59.3259C30.1905 59.6708 30.4132 60.1304 30.4056 60.6062C30.4037 60.7094 30.3922 60.8365 30.3071 60.9072C30.2306 60.9702 30.1331 60.9664 30.1063 60.9655C29.7211 60.9502 29.6026 60.4275 29.4305 60.1696C29.1924 59.8132 28.8187 59.5399 28.442 59.3441C28.2728 59.2562 28.0921 59.1893 27.9086 59.1396C27.725 59.0899 27.53 59.1205 27.3455 59.0737C27.2863 59.0584 27.227 59.0345 27.184 58.9906C27.1333 58.939 27.1104 58.8635 27.1104 58.7909C27.1104 58.7154 27.1228 58.6437 27.1601 58.5855L27.1572 58.5845Z" fill="white"/>
<path opacity="0.28" d="M26.603 63.5394C26.6126 63.525 26.6241 63.5126 26.6403 63.5031C26.6633 63.4887 26.69 63.4792 26.7158 63.4715C26.843 63.4324 26.9711 63.4161 27.103 63.4381C27.1565 63.4467 27.2101 63.461 27.2617 63.4792C27.4883 63.5566 27.7072 63.6846 27.8793 63.8537C27.8946 63.869 27.9098 63.8843 27.9242 63.9005C28.0781 64.0687 28.1861 64.2913 28.1823 64.5225C28.1823 64.5722 28.1756 64.6343 28.1345 64.6687C28.0972 64.6993 28.0494 64.6974 28.037 64.6974C27.8496 64.6897 27.7923 64.4356 27.7081 64.3104C27.5925 64.1375 27.4108 64.0047 27.2273 63.9091C27.1451 63.8661 27.0571 63.8336 26.9682 63.8098C26.8784 63.7859 26.7837 63.8002 26.6948 63.7773C26.6661 63.7696 26.6375 63.7582 26.6164 63.7371C26.5916 63.7123 26.5811 63.6751 26.5811 63.6397C26.5811 63.6034 26.5868 63.568 26.605 63.5394H26.603Z" fill="white"/>
<path opacity="0.28" d="M101.341 63.5784C101.351 63.5641 101.362 63.5517 101.379 63.5421C101.402 63.5278 101.428 63.5182 101.454 63.5106C101.581 63.4714 101.709 63.4552 101.841 63.4772C101.895 63.4858 101.948 63.5001 102 63.5182C102.227 63.5956 102.445 63.7237 102.618 63.8928C102.633 63.9081 102.648 63.9233 102.662 63.9396C102.816 64.1077 102.924 64.3304 102.921 64.5616C102.921 64.6113 102.914 64.6734 102.873 64.7078C102.835 64.7383 102.788 64.7364 102.775 64.7364C102.588 64.7288 102.531 64.4746 102.446 64.3495C102.331 64.1765 102.149 64.0437 101.966 63.9482C101.883 63.9052 101.795 63.8727 101.707 63.8488C101.617 63.8249 101.522 63.8393 101.433 63.8163C101.404 63.8087 101.376 63.7972 101.355 63.7762C101.33 63.7514 101.319 63.7141 101.319 63.6788C101.319 63.6425 101.325 63.6071 101.343 63.5784H101.341Z" fill="white"/>
<path opacity="0.61" d="M8.00249 57.5173C8.03978 57.4857 8.08471 57.4619 8.13059 57.4447C8.24244 57.4045 8.36863 57.3978 8.48525 57.3864C8.61622 57.374 8.74719 57.3673 8.87816 57.3644C9.13722 57.3587 9.39533 57.3663 9.6544 57.3682C9.86758 57.3701 10.0808 57.3759 10.2939 57.3787C10.5444 57.4141 10.7987 57.4714 11.0281 57.5794C11.2576 57.6873 11.4401 57.8822 11.5549 58.0963C11.5682 58.1211 11.5807 58.1459 11.5912 58.1708C11.7002 58.4192 11.7202 58.6944 11.7279 58.9628C11.7317 59.0976 11.7279 59.2323 11.7394 59.366C11.7508 59.5094 11.7709 59.6527 11.7604 59.7969C11.7547 59.8686 11.7403 59.9431 11.6963 60.0004C11.6619 60.0454 11.6113 60.0759 11.5577 60.095C11.5061 60.1141 11.4449 60.1227 11.3971 60.0941C11.312 60.0425 11.2967 59.9011 11.2824 59.8113C11.2652 59.7014 11.2547 59.5915 11.2413 59.4816C11.1983 59.1272 11.1333 58.7593 10.9163 58.4651C10.7652 58.2606 10.5444 58.124 10.2997 58.0609C9.99281 57.9826 9.66587 58.0007 9.35136 57.9988C8.96419 57.9969 8.57703 57.9873 8.19273 57.9329C8.09809 57.9195 7.99293 57.8975 7.93844 57.8182C7.89256 57.7514 7.89829 57.6577 7.9394 57.588C7.95565 57.5603 7.97668 57.5364 8.00058 57.5163L8.00249 57.5173Z" fill="white"/>
<path opacity="0.61" d="M83.6868 57.78C83.7068 57.7571 83.7317 57.737 83.7623 57.7227C83.8072 57.7016 83.8569 57.6921 83.9066 57.6835C84.1456 57.6434 84.3817 57.6453 84.614 57.7169C84.7096 57.7465 84.8014 57.7838 84.8903 57.8287C85.2813 58.0236 85.6474 58.3083 85.917 58.6542C85.9409 58.6848 85.9648 58.7163 85.9868 58.7488C86.2249 59.0889 86.3663 59.5198 86.3042 59.9364C86.2908 60.0262 86.266 60.137 86.1818 60.1896C86.1073 60.2364 86.0212 60.2211 85.9983 60.2173C85.6618 60.159 85.6188 59.6861 85.4974 59.4386C85.3301 59.0975 85.0337 58.8138 84.7249 58.5969C84.5863 58.4994 84.4362 58.4192 84.2795 58.3542C84.1227 58.2892 83.9487 58.2931 83.7919 58.23C83.7413 58.2099 83.6925 58.1813 83.659 58.1383C83.6208 58.0867 83.6093 58.0179 83.6179 57.9539C83.6265 57.888 83.6457 57.8258 83.6858 57.779L83.6868 57.78Z" fill="white"/>
<path opacity="0.61" d="M101.148 58.4345C101.17 58.3963 101.203 58.3619 101.244 58.3342C101.305 58.2931 101.375 58.2673 101.444 58.2443C101.781 58.1306 102.124 58.0781 102.479 58.1268C102.624 58.1469 102.767 58.1803 102.906 58.2243C103.52 58.4163 104.118 58.744 104.591 59.1835C104.633 59.2227 104.674 59.2628 104.714 59.3049C105.14 59.7444 105.446 60.3358 105.453 60.9559C105.455 61.0896 105.444 61.2568 105.335 61.3524C105.236 61.4374 105.109 61.4365 105.075 61.4355C104.572 61.4298 104.399 60.7524 104.165 60.4208C103.841 59.9641 103.344 59.6211 102.845 59.3794C102.622 59.2705 102.384 59.1893 102.142 59.131C101.9 59.0727 101.647 59.1195 101.405 59.0651C101.326 59.0479 101.248 59.0183 101.191 58.9628C101.123 58.8969 101.09 58.7995 101.087 58.7049C101.084 58.6065 101.098 58.5119 101.145 58.4345H101.148Z" fill="white"/>
<path opacity="0.61" d="M23.3779 46.8823C23.4027 46.8679 23.4314 46.8584 23.4639 46.8565C23.5108 46.8527 23.5576 46.8603 23.6044 46.8689C23.8291 46.9109 24.0385 46.9883 24.222 47.1278C24.2975 47.1842 24.3664 47.2482 24.4314 47.317C24.7153 47.617 24.9485 47.9877 25.0757 48.3823C25.0872 48.4177 25.0977 48.453 25.1072 48.4893C25.2086 48.8686 25.1942 49.2967 25.004 49.6473C24.9629 49.7228 24.9046 49.8136 24.8137 49.8327C24.7315 49.8499 24.6608 49.8088 24.6417 49.7983C24.3616 49.6378 24.4763 49.203 24.4486 48.9441C24.4103 48.5868 24.2392 48.239 24.0346 47.9466C23.9429 47.8157 23.8358 47.6954 23.7173 47.5874C23.5997 47.4794 23.4438 47.4259 23.3244 47.3199C23.2861 47.2855 23.2517 47.2444 23.2364 47.1957C23.2192 47.1374 23.2316 47.0724 23.2593 47.0189C23.288 46.9625 23.3263 46.9138 23.376 46.8851L23.3779 46.8823Z" fill="white"/>
<path opacity="0.61" d="M13.9119 48.2954C13.9348 48.2772 13.9607 48.2629 13.9922 48.2552C14.0381 48.2438 14.0859 48.2438 14.1327 48.2438C14.3612 48.2486 14.5811 48.2906 14.7847 48.3976C14.8679 48.4415 14.9472 48.4922 15.0218 48.5495C15.3516 48.7989 15.6422 49.1266 15.8324 49.4954C15.8496 49.5279 15.8659 49.5613 15.8812 49.5957C16.0428 49.9531 16.1001 50.3782 15.9701 50.7547C15.9424 50.8359 15.8994 50.9352 15.8124 50.9687C15.7349 50.9993 15.6575 50.9706 15.6365 50.9629C15.3334 50.8502 15.3755 50.4031 15.3057 50.1518C15.2091 49.8059 14.9835 49.4906 14.734 49.2355C14.6222 49.1209 14.496 49.0205 14.3622 48.9326C14.2283 48.8447 14.0658 48.818 13.931 48.733C13.888 48.7052 13.8469 48.6709 13.824 48.624C13.7972 48.5696 13.7991 48.5037 13.8173 48.4454C13.8364 48.3852 13.866 48.3307 13.9109 48.2944L13.9119 48.2954Z" fill="white"/>
<path d="M62.131 62.541H64.0315C64.6863 62.541 65.2322 62.0183 65.236 61.3648V58.8501C65.236 57.738 64.3336 56.8361 63.2208 56.8361H57.4277C52.8706 56.8361 49.1768 60.5279 49.1768 65.0824V67.5752C49.1768 72.3428 53.0436 76.2075 57.8139 76.2075H63.2199C64.3336 76.2075 65.2351 75.3056 65.2351 74.1935V71.6807C65.2322 71.1418 64.7829 70.7109 64.2428 70.7109H62.1004C61.7735 70.7109 61.4772 70.5791 61.2611 70.3631C61.0441 70.1462 60.9112 69.8481 60.9131 69.5185C60.9179 68.8621 61.4724 68.3405 62.1301 68.3405H63.7113C64.5401 68.3405 65.2284 67.6784 65.2351 66.8509V66.1984C65.2303 65.4837 64.6347 64.9133 63.9196 64.9133H62.0995C61.7726 64.9133 61.4762 64.7815 61.2602 64.5665C61.0432 64.3496 60.9103 64.0515 60.9122 63.7219C60.917 63.0646 61.4714 62.5429 62.1291 62.5429L62.131 62.541Z" fill="#31CCC2"/>
<path opacity="0.61" d="M60.7144 57.587C60.7517 57.5554 60.7966 57.5316 60.8425 57.5144C60.9544 57.4742 61.0805 57.4675 61.1972 57.4561C61.3281 57.4437 61.4591 57.437 61.5901 57.4341C61.8491 57.4284 62.1072 57.436 62.3663 57.4379C62.5795 57.4398 62.7927 57.4456 63.0059 57.4484C63.2563 57.4838 63.5106 57.5411 63.74 57.6491C63.9609 57.7532 64.1521 57.9519 64.2668 58.166C64.2802 58.1908 64.2926 58.2156 64.3031 58.2405C64.4121 58.4889 64.4322 58.7641 64.4398 59.0325C64.4436 59.1673 64.4398 59.302 64.4513 59.4357C64.4627 59.5791 64.4828 59.7224 64.4723 59.8666C64.4666 59.9383 64.4522 60.0128 64.4082 60.0701C64.3738 60.1151 64.3232 60.1456 64.2696 60.1647C64.218 60.1839 64.1568 60.1924 64.109 60.1638C64.024 60.1122 64.0087 59.9708 63.9943 59.881C63.9771 59.7711 63.9666 59.6612 63.9532 59.5513C63.9102 59.1969 63.8452 58.829 63.6282 58.5348C63.4771 58.3303 63.2563 58.1937 63.0116 58.1306C62.7047 58.0523 62.3778 58.0704 62.0633 58.0685C61.6761 58.0666 61.2889 58.057 60.9046 58.0026C60.81 57.9892 60.7048 57.9672 60.6504 57.8879C60.6045 57.8211 60.6102 57.7274 60.6513 57.6577C60.6676 57.63 60.6886 57.6061 60.7125 57.586L60.7144 57.587Z" fill="white"/>
<path opacity="0.61" d="M63.1323 65.2964C63.1419 65.2811 63.1553 65.2668 63.1715 65.2553C63.1964 65.2391 63.2251 65.2285 63.2528 65.219C63.3905 65.1741 63.5291 65.1531 63.6734 65.1741C63.7317 65.1827 63.79 65.197 63.8464 65.2152C64.095 65.2945 64.3369 65.4292 64.5271 65.6088C64.5443 65.6251 64.5605 65.6413 64.5768 65.6585C64.7479 65.8381 64.8712 66.0789 64.8722 66.3302C64.8722 66.3846 64.8674 66.4525 64.8234 66.4907C64.7833 66.5251 64.7317 66.5241 64.7173 66.5241C64.5137 66.5203 64.4449 66.2451 64.3502 66.1104C64.2202 65.9241 64.0195 65.7837 63.8178 65.6843C63.727 65.6394 63.6314 65.6059 63.5329 65.5821C63.4344 65.5582 63.3321 65.5763 63.2337 65.5534C63.2021 65.5457 63.1706 65.5343 63.1467 65.5114C63.119 65.4846 63.1065 65.4445 63.1056 65.4063C63.1046 65.3661 63.1103 65.3279 63.1295 65.2964H63.1323Z" fill="white"/>
<path d="M43.7326 58.016C42.8197 57.1045 41.5607 56.5408 40.1688 56.5408C37.386 56.5408 35.1299 58.7956 35.1299 61.5769V70.8752C35.1299 72.2653 35.6939 73.5256 36.6059 74.4361C37.5179 75.3476 38.7778 75.9113 40.1688 75.9113C42.9516 75.9113 45.2077 73.6565 45.2077 70.8752V61.5769C45.2077 60.1867 44.6446 58.9265 43.7326 58.016Z" fill="#FBBF3A"/>
<path opacity="0.61" d="M41.22 57.7705C41.24 57.7475 41.2649 57.7275 41.2955 57.7131C41.3404 57.6921 41.3901 57.6826 41.4398 57.674C41.6788 57.6338 41.915 57.6357 42.1473 57.7074C42.2429 57.737 42.3346 57.7743 42.4235 57.8192C42.8145 58.0141 43.1807 58.2988 43.4502 58.6447C43.4741 58.6753 43.498 58.7068 43.52 58.7393C43.7581 59.0794 43.8995 59.5103 43.8374 59.9269C43.824 60.0167 43.7992 60.1275 43.715 60.1801C43.6405 60.2269 43.5544 60.2116 43.5315 60.2078C43.195 60.1495 43.152 59.6766 43.0306 59.4291C42.8633 59.088 42.5669 58.8042 42.2581 58.5874C42.1195 58.4899 41.9694 58.4096 41.8127 58.3447C41.6568 58.2797 41.4819 58.2835 41.3251 58.2205C41.2745 58.2004 41.2257 58.1718 41.1922 58.1288C41.154 58.0772 41.1425 58.0084 41.1511 57.9444C41.1597 57.8784 41.1789 57.8163 41.219 57.7695L41.22 57.7705Z" fill="white"/>
<path opacity="0.47" d="M59.3569 3.78922C59.4582 3.6717 59.5844 3.57233 59.7431 3.50067C59.9735 3.39558 60.224 3.34685 60.4744 3.30577C61.6866 3.10704 62.8844 3.1185 64.0641 3.48252C64.5468 3.63157 65.0143 3.82648 65.4646 4.05292C67.4472 5.04848 69.298 6.49501 70.6621 8.25397C70.7845 8.41162 70.9021 8.57118 71.0158 8.73551C72.2185 10.4658 72.9307 12.6499 72.6114 14.7653C72.5425 15.2229 72.4125 15.7847 71.9881 16.0475C71.6066 16.2835 71.1745 16.207 71.056 16.186C69.3496 15.885 69.1364 13.484 68.5237 12.2286C67.6776 10.4954 66.1787 9.05081 64.6147 7.95014C63.9121 7.45618 63.1502 7.0463 62.3586 6.71381C61.569 6.38227 60.6819 6.39947 59.8884 6.0794C59.6322 5.97621 59.3827 5.8329 59.2173 5.61123C59.0214 5.34849 58.9669 5.00071 59.0099 4.67586C59.0539 4.3405 59.1542 4.02617 59.3569 3.78922Z" fill="white"/>
</svg>
